<svg width="1520" height="874" viewBox="0 0 1520 874" fill="none" xmlns="http://www.w3.org/2000/svg">
<path d="M489.194 363.253C489.194 363.253 283.737 389.091 187.104 482.934C-53.6008 716.692 6.72508 854.006 6.72508 854.006L1367.45 874L1520 256.349C1491.17 225.949 1352.57 173.846 1293.63 140.348C1234.69 106.851 1173.4 149.15 1173.4 149.15C1173.4 149.15 1204.43 77.5382 1103.88 30.8197C1018.06 -9.04874 861.363 1.17496 861.363 1.17496C687.352 18.978 734.767 149.15 734.767 149.15C734.767 149.15 790.14 161.48 667.247 188.844C564.034 211.825 489.194 363.253 489.194 363.253Z" fill="url(#paint0_linear_3027_227)" fill-opacity="0.42"/>
<defs>
<linearGradient id="paint0_linear_3027_227" x1="994" y1="-40" x2="755.61" y2="886.943" gradientUnits="userSpaceOnUse">
<stop stop-color="#A290EF"/>
<stop offset="1" stop-color="#5E5397"/>
</linearGradient>
</defs>
</svg>
