<svg width="73" height="122" viewBox="0 0 73 122" fill="none" xmlns="http://www.w3.org/2000/svg">
<g filter="url(#filter0_d_892_556)">
<g filter="url(#filter1_g_892_556)">
<path d="M35.0999 19.0943C44.1323 19.0944 51.6602 26.2868 53.3528 35.8267C54.673 39.7988 55.5227 45.9367 55.5227 52.8257C55.5227 57.5254 55.7206 62.867 55.051 66.4185L53.7795 58.4478L54.0881 65.9029V67.1832C53.0409 71.6764 51.5121 74.5103 49.8069 74.5103C49.0361 74.5103 48.3011 73.9308 47.6301 72.8814L46.2932 68.8599L45.7639 58.4478V70.525C44.92 71.3352 44.0038 71.7797 43.0461 71.7798C42.6993 71.7798 42.3572 71.7207 42.0227 71.608L40.885 67.3619V70.9986C40.5829 70.7745 40.2883 70.5045 40.0032 70.192L39.9016 68.9205L39.1985 60.19L39.1428 59.4918L38.3752 55.3961L38.6145 60.3257L39.0305 68.9068L39.1047 70.4312C37.5301 73.0842 35.531 74.6705 33.3567 74.6705C31.0339 74.6703 28.9123 72.859 27.2932 69.8716V65.1246C26.086 69.1443 24.4074 71.6391 22.5471 71.6392C21.0203 71.6392 19.6132 69.9591 18.4905 67.1343V59.3287L17.6135 64.4869C16.5455 60.6327 15.8948 55.5212 15.8948 49.9136C15.8948 46.6614 16.1149 43.5762 16.5071 40.8062C16.4954 40.5042 16.4895 40.2003 16.4895 39.8951C16.4896 28.4071 24.8216 19.0943 35.0999 19.0943ZM54.0881 67.1929V67.1832C54.1087 67.0948 54.1314 67.0062 54.1516 66.9166L54.0881 67.1929Z" fill="url(#paint0_linear_892_556)"/>
</g>
<g filter="url(#filter2_g_892_556)">
<path d="M19.8778 31.1069C22.3345 31.3213 23.7791 39.8136 23.1044 50.0746C22.4707 59.7117 20.1926 67.4818 17.8827 68.2133V62.3832L17.1288 67.5327L17.038 68.1557C14.8251 67.1102 13.5703 58.9932 14.2079 49.2973C14.8826 39.0365 17.4212 30.8925 19.8778 31.1069ZM49.3163 29.4965C51.7397 28.9865 55.0067 36.778 56.6141 46.8998C58.2216 57.0221 57.5601 65.6418 55.1366 66.1528C54.9381 66.1945 54.7337 66.181 54.5253 66.1147L54.4589 65.4272L53.7802 58.4477L54.0878 65.9028C51.84 64.4597 49.2235 57.4693 47.8387 48.7495C46.2313 38.6272 46.8928 30.0075 49.3163 29.4965Z" fill="url(#paint1_radial_892_556)"/>
</g>
<g filter="url(#filter3_g_892_556)">
<path d="M29.6839 68.7762C33.3217 61.9049 28.7503 51.7384 26.3364 46.7141L42.9439 44.6931C43 48.2579 43.3986 58.0651 44.5438 68.7762C45.9753 82.165 38.7989 75.1759 37.199 81.744C35.9191 86.9985 41.3905 105.995 40.5673 108.522C39.744 111.048 34.2114 113.716 24.25 110.122C16.3158 107.259 29.6839 96.2275 25.1368 85.5333C20.5896 74.8391 25.1368 77.3652 29.6839 68.7762Z" fill="url(#paint2_linear_892_556)"/>
</g>
<g filter="url(#filter4_n_892_556)">
<path d="M41.6619 48.6508C41.6632 48.6561 43.9762 58.432 44.5252 64.8188C44.7985 67.9987 45.1984 72.9 44.8621 72.9868C44.5253 73.071 43.2615 70.7639 42.9246 69.6186C42.5611 68.3826 41.3802 72.1037 41.119 72.3852C41.2801 74.2456 40.9529 75.6306 39.1932 76.9868C36.2923 79.2223 36.4244 79.3827 34.908 83.4545C33.392 87.5269 38.6655 104.452 37.6766 105.889C36.8854 107.038 35.5669 104.372 34.0506 101.738C32.8199 94.3392 29.8052 83.2783 31.282 81.937C33.1282 80.2602 37.8081 76.1889 37.6766 72.6762C37.6337 71.5336 37.8426 70.1795 38.1658 69.0239C38.0346 68.9129 37.9077 68.8027 37.7889 68.6918C36.7784 67.7487 34.1671 72.4816 32.5672 74.4184C30.9679 76.3539 31.8092 72.3979 31.8094 71.0502C31.8094 69.7029 29.0029 71.2746 27.5994 72.2289C28.6846 70.4861 29.4521 67.5128 30.1258 67.2602C30.7995 67.0037 35.5024 48.6977 35.5145 48.6508H41.6619Z" fill="url(#paint3_linear_892_556)"/>
</g>
<g filter="url(#filter5_g_892_556)">
<path d="M35.4396 10C45.0899 10.0002 53.3178 15.899 56.506 24.1816C58.432 27.4536 60.2822 32.8759 61.4308 39.1533C63.3727 49.766 62.5741 58.8033 59.6467 59.3398C59.4068 59.3837 59.1593 59.3694 58.9074 59.2998L58.8273 58.5791H58.8264L58.007 51.2744L58.3791 59.0781L58.4279 60.1025L58.4553 60.1406C57.1889 65.0133 55.3076 68.1021 53.2072 68.1025C52.2761 68.1024 51.3869 67.4957 50.5764 66.3955L49.9445 62.1523L48.3224 51.2607V63.9238C47.3028 64.7735 46.1954 65.2393 45.0383 65.2393C44.6196 65.2392 44.2067 65.1787 43.8029 65.0605L42.4279 60.6084V64.4209C42.0631 64.186 41.7077 63.9027 41.3635 63.5752L41.2394 62.2422L40.3908 53.0879L40.3234 52.3555L39.3967 48.0615L39.6857 53.2305L40.1877 62.2275L40.2775 63.8252C38.3753 66.6067 35.9609 68.2704 33.3342 68.2705C30.528 68.2703 27.964 66.3715 26.008 63.2393V54.04H25.256L25.0871 55.3047C24.9071 56.5484 24.6942 57.7303 24.4514 58.8369C23.1972 64.5517 21.1557 68.2702 18.8508 68.2705C17.2661 68.2702 15.8051 66.5126 14.6398 63.5566V55.3926L13.7297 60.7861L13.6193 61.4404C10.946 60.3442 9.43019 51.8339 10.2004 41.668C10.724 34.757 12.1789 28.7626 13.9377 25.418C16.7541 16.4917 25.3154 10.0002 35.4396 10Z" fill="url(#paint4_radial_892_556)"/>
</g>
<g filter="url(#filter6_d_892_556)">
<ellipse cx="20.8983" cy="27.191" rx="3.19985" ry="5.64184" transform="rotate(20.9221 20.8983 27.191)" fill="url(#paint5_radial_892_556)"/>
</g>
<g filter="url(#filter7_d_892_556)">
<ellipse cx="54.0056" cy="42.0189" rx="4.15475" ry="6.33257" transform="rotate(-22.1065 54.0056 42.0189)" fill="url(#paint6_radial_892_556)"/>
</g>
<g filter="url(#filter8_d_892_556)">
<ellipse cx="31.9194" cy="49.9343" rx="2.8803" ry="3.57827" transform="rotate(-22.1065 31.9194 49.9343)" fill="url(#paint7_radial_892_556)"/>
</g>
<g filter="url(#filter9_d_892_556)">
<ellipse cx="39.4458" cy="27.1986" rx="2.8803" ry="3.57827" transform="rotate(-22.1065 39.4458 27.1986)" fill="url(#paint8_radial_892_556)"/>
</g>
<g filter="url(#filter10_d_892_556)">
<ellipse cx="16.6949" cy="46.6644" rx="3.2261" ry="5.81937" transform="rotate(-22.1065 16.6949 46.6644)" fill="url(#paint9_radial_892_556)"/>
</g>
<g filter="url(#filter11_d_892_556)">
<ellipse cx="35.8711" cy="61.7403" rx="1.10079" ry="1.59291" transform="rotate(-22.1065 35.8711 61.7403)" fill="url(#paint10_radial_892_556)"/>
</g>
<g filter="url(#filter12_d_892_556)">
<ellipse cx="37.0499" cy="15.4267" rx="1.10079" ry="1.59291" transform="rotate(-22.1065 37.0499 15.4267)" fill="url(#paint11_radial_892_556)"/>
</g>
<g filter="url(#filter13_d_892_556)">
<ellipse cx="30.0488" cy="37.3205" rx="2.27586" ry="2.02449" transform="rotate(-22.1065 30.0488 37.3205)" fill="url(#paint12_radial_892_556)"/>
</g>
<g filter="url(#filter14_d_892_556)">
<ellipse cx="44.7816" cy="47.4252" rx="1.87781" ry="1.27729" transform="rotate(-114.419 44.7816 47.4252)" fill="url(#paint13_radial_892_556)"/>
</g>
<g filter="url(#filter15_d_892_556)">
<ellipse cx="50.5952" cy="25.5316" rx="2.27586" ry="2.02449" transform="rotate(-22.1065 50.5952 25.5316)" fill="url(#paint14_radial_892_556)"/>
</g>
</g>
<defs>
<filter id="filter0_d_892_556" x="0" y="0" width="72.4918" height="121.869" filterUnits="userSpaceOnUse" color-interpolation-filters="sRGB">
<feFlood flood-opacity="0" result="BackgroundImageFix"/>
<feColorMatrix in="SourceAlpha" type="matrix" values="0 0 0 0 0 0 0 0 0 0 0 0 0 0 0 0 0 0 127 0" result="hardAlpha"/>
<feOffset/>
<feGaussianBlur stdDeviation="5"/>
<feComposite in2="hardAlpha" operator="out"/>
<feColorMatrix type="matrix" values="0 0 0 0 1 0 0 0 0 0.811765 0 0 0 0 0.0666667 0 0 0 0.3 0"/>
<feBlend mode="normal" in2="BackgroundImageFix" result="effect1_dropShadow_892_556"/>
<feBlend mode="normal" in="SourceGraphic" in2="effect1_dropShadow_892_556" result="shape"/>
</filter>
<filter id="filter1_g_892_556" x="15.0522" y="18.2517" width="41.3403" height="57.2613" filterUnits="userSpaceOnUse" color-interpolation-filters="sRGB">
<feFlood flood-opacity="0" result="BackgroundImageFix"/>
<feBlend mode="normal" in="SourceGraphic" in2="BackgroundImageFix" result="shape"/>
<feTurbulence type="fractalNoise" baseFrequency="1.8259333372116089 1.8259333372116089" numOctaves="3" seed="7289" />
<feDisplacementMap in="shape" scale="1.6851234436035156" xChannelSelector="R" yChannelSelector="G" result="displacedImage" width="100%" height="100%" />
<feMerge result="effect1_texture_892_556">
<feMergeNode in="displacedImage"/>
</feMerge>
</filter>
<filter id="filter2_g_892_556" x="13.1994" y="28.6303" width="45.1354" height="40.4256" filterUnits="userSpaceOnUse" color-interpolation-filters="sRGB">
<feFlood flood-opacity="0" result="BackgroundImageFix"/>
<feBlend mode="normal" in="SourceGraphic" in2="BackgroundImageFix" result="shape"/>
<feTurbulence type="fractalNoise" baseFrequency="1.8259333372116089 1.8259333372116089" numOctaves="3" seed="5940" />
<feDisplacementMap in="shape" scale="1.6851234436035156" xChannelSelector="R" yChannelSelector="G" result="displacedImage" width="100%" height="100%" />
<feMerge result="effect1_texture_892_556">
<feMergeNode in="displacedImage"/>
</feMerge>
</filter>
<filter id="filter3_g_892_556" x="20.8336" y="43.8506" width="24.7404" height="68.8609" filterUnits="userSpaceOnUse" color-interpolation-filters="sRGB">
<feFlood flood-opacity="0" result="BackgroundImageFix"/>
<feBlend mode="normal" in="SourceGraphic" in2="BackgroundImageFix" result="shape"/>
<feTurbulence type="fractalNoise" baseFrequency="1.8259333372116089 1.8259333372116089" numOctaves="3" seed="3035" />
<feDisplacementMap in="shape" scale="1.6851234436035156" xChannelSelector="R" yChannelSelector="G" result="displacedImage" width="100%" height="100%" />
<feMerge result="effect1_texture_892_556">
<feMergeNode in="displacedImage"/>
</feMerge>
</filter>
<filter id="filter4_n_892_556" x="27.5994" y="48.6508" width="17.3911" height="57.5128" filterUnits="userSpaceOnUse" color-interpolation-filters="sRGB">
<feFlood flood-opacity="0" result="BackgroundImageFix"/>
<feBlend mode="normal" in="SourceGraphic" in2="BackgroundImageFix" result="shape"/>
<feTurbulence type="fractalNoise" baseFrequency="2.3737132549285889 2.3737132549285889" stitchTiles="stitch" numOctaves="3" result="noise" seed="5940" />
<feColorMatrix in="noise" type="luminanceToAlpha" result="alphaNoise" />
<feComponentTransfer in="alphaNoise" result="coloredNoise1">
<feFuncA type="discrete" tableValues="1 1 1 1 1 1 1 1 1 1 1 1 1 1 1 1 1 1 1 1 1 1 1 1 1 1 1 1 1 1 1 1 1 1 1 1 1 1 1 1 1 1 1 1 1 1 1 1 1 1 1 0 0 0 0 0 0 0 0 0 0 0 0 0 0 0 0 0 0 0 0 0 0 0 0 0 0 0 0 0 0 0 0 0 0 0 0 0 0 0 0 0 0 0 0 0 0 0 0 0 "/>
</feComponentTransfer>
<feComposite operator="in" in2="shape" in="coloredNoise1" result="noise1Clipped" />
<feFlood flood-color="rgba(0, 0, 0, 0.25)" result="color1Flood" />
<feComposite operator="in" in2="noise1Clipped" in="color1Flood" result="color1" />
<feMerge result="effect1_noise_892_556">
<feMergeNode in="shape" />
<feMergeNode in="color1" />
</feMerge>
</filter>
<filter id="filter5_g_892_556" x="9.15744" y="9.15744" width="54.1769" height="59.9556" filterUnits="userSpaceOnUse" color-interpolation-filters="sRGB">
<feFlood flood-opacity="0" result="BackgroundImageFix"/>
<feBlend mode="normal" in="SourceGraphic" in2="BackgroundImageFix" result="shape"/>
<feTurbulence type="fractalNoise" baseFrequency="1.8259333372116089 1.8259333372116089" numOctaves="3" seed="5940" />
<feDisplacementMap in="shape" scale="1.6851234436035156" xChannelSelector="R" yChannelSelector="G" result="displacedImage" width="100%" height="100%" />
<feMerge result="effect1_texture_892_556">
<feMergeNode in="displacedImage"/>
</feMerge>
</filter>
<filter id="filter6_d_892_556" x="16.4509" y="21.7975" width="8.89478" height="12.472" filterUnits="userSpaceOnUse" color-interpolation-filters="sRGB">
<feFlood flood-opacity="0" result="BackgroundImageFix"/>
<feColorMatrix in="SourceAlpha" type="matrix" values="0 0 0 0 0 0 0 0 0 0 0 0 0 0 0 0 0 0 127 0" result="hardAlpha"/>
<feOffset dy="0.842562"/>
<feGaussianBlur stdDeviation="0.421281"/>
<feComposite in2="hardAlpha" operator="out"/>
<feColorMatrix type="matrix" values="0 0 0 0 0 0 0 0 0 0 0 0 0 0 0 0 0 0 0.25 0"/>
<feBlend mode="normal" in2="BackgroundImageFix" result="effect1_dropShadow_892_556"/>
<feBlend mode="normal" in="SourceGraphic" in2="effect1_dropShadow_892_556" result="shape"/>
</filter>
<filter id="filter7_d_892_556" x="48.635" y="35.9456" width="10.741" height="13.8317" filterUnits="userSpaceOnUse" color-interpolation-filters="sRGB">
<feFlood flood-opacity="0" result="BackgroundImageFix"/>
<feColorMatrix in="SourceAlpha" type="matrix" values="0 0 0 0 0 0 0 0 0 0 0 0 0 0 0 0 0 0 127 0" result="hardAlpha"/>
<feOffset dy="0.842562"/>
<feGaussianBlur stdDeviation="0.421281"/>
<feComposite in2="hardAlpha" operator="out"/>
<feColorMatrix type="matrix" values="0 0 0 0 0 0 0 0 0 0 0 0 0 0 0 0 0 0 0.25 0"/>
<feBlend mode="normal" in2="BackgroundImageFix" result="effect1_dropShadow_892_556"/>
<feBlend mode="normal" in="SourceGraphic" in2="effect1_dropShadow_892_556" result="shape"/>
</filter>
<filter id="filter8_d_892_556" x="28.0871" y="46.4455" width="7.66462" height="8.66285" filterUnits="userSpaceOnUse" color-interpolation-filters="sRGB">
<feFlood flood-opacity="0" result="BackgroundImageFix"/>
<feColorMatrix in="SourceAlpha" type="matrix" values="0 0 0 0 0 0 0 0 0 0 0 0 0 0 0 0 0 0 127 0" result="hardAlpha"/>
<feOffset dy="0.842562"/>
<feGaussianBlur stdDeviation="0.421281"/>
<feComposite in2="hardAlpha" operator="out"/>
<feColorMatrix type="matrix" values="0 0 0 0 0 0 0 0 0 0 0 0 0 0 0 0 0 0 0.25 0"/>
<feBlend mode="normal" in2="BackgroundImageFix" result="effect1_dropShadow_892_556"/>
<feBlend mode="normal" in="SourceGraphic" in2="effect1_dropShadow_892_556" result="shape"/>
</filter>
<filter id="filter9_d_892_556" x="35.6134" y="23.7097" width="7.66462" height="8.66285" filterUnits="userSpaceOnUse" color-interpolation-filters="sRGB">
<feFlood flood-opacity="0" result="BackgroundImageFix"/>
<feColorMatrix in="SourceAlpha" type="matrix" values="0 0 0 0 0 0 0 0 0 0 0 0 0 0 0 0 0 0 127 0" result="hardAlpha"/>
<feOffset dy="0.842562"/>
<feGaussianBlur stdDeviation="0.421281"/>
<feComposite in2="hardAlpha" operator="out"/>
<feColorMatrix type="matrix" values="0 0 0 0 0 0 0 0 0 0 0 0 0 0 0 0 0 0 0.25 0"/>
<feBlend mode="normal" in2="BackgroundImageFix" result="effect1_dropShadow_892_556"/>
<feBlend mode="normal" in="SourceGraphic" in2="effect1_dropShadow_892_556" result="shape"/>
</filter>
<filter id="filter10_d_892_556" x="12.1468" y="41.1367" width="9.09638" height="12.7407" filterUnits="userSpaceOnUse" color-interpolation-filters="sRGB">
<feFlood flood-opacity="0" result="BackgroundImageFix"/>
<feColorMatrix in="SourceAlpha" type="matrix" values="0 0 0 0 0 0 0 0 0 0 0 0 0 0 0 0 0 0 127 0" result="hardAlpha"/>
<feOffset dy="0.842562"/>
<feGaussianBlur stdDeviation="0.421281"/>
<feComposite in2="hardAlpha" operator="out"/>
<feColorMatrix type="matrix" values="0 0 0 0 0 0 0 0 0 0 0 0 0 0 0 0 0 0 0.25 0"/>
<feBlend mode="normal" in2="BackgroundImageFix" result="effect1_dropShadow_892_556"/>
<feBlend mode="normal" in="SourceGraphic" in2="effect1_dropShadow_892_556" result="shape"/>
</filter>
<filter id="filter11_d_892_556" x="33.8454" y="60.2071" width="4.05146" height="4.75159" filterUnits="userSpaceOnUse" color-interpolation-filters="sRGB">
<feFlood flood-opacity="0" result="BackgroundImageFix"/>
<feColorMatrix in="SourceAlpha" type="matrix" values="0 0 0 0 0 0 0 0 0 0 0 0 0 0 0 0 0 0 127 0" result="hardAlpha"/>
<feOffset dy="0.842562"/>
<feGaussianBlur stdDeviation="0.421281"/>
<feComposite in2="hardAlpha" operator="out"/>
<feColorMatrix type="matrix" values="0 0 0 0 0 0 0 0 0 0 0 0 0 0 0 0 0 0 0.25 0"/>
<feBlend mode="normal" in2="BackgroundImageFix" result="effect1_dropShadow_892_556"/>
<feBlend mode="normal" in="SourceGraphic" in2="effect1_dropShadow_892_556" result="shape"/>
</filter>
<filter id="filter12_d_892_556" x="35.0242" y="13.8935" width="4.05146" height="4.75159" filterUnits="userSpaceOnUse" color-interpolation-filters="sRGB">
<feFlood flood-opacity="0" result="BackgroundImageFix"/>
<feColorMatrix in="SourceAlpha" type="matrix" values="0 0 0 0 0 0 0 0 0 0 0 0 0 0 0 0 0 0 127 0" result="hardAlpha"/>
<feOffset dy="0.842562"/>
<feGaussianBlur stdDeviation="0.421281"/>
<feComposite in2="hardAlpha" operator="out"/>
<feColorMatrix type="matrix" values="0 0 0 0 0 0 0 0 0 0 0 0 0 0 0 0 0 0 0.25 0"/>
<feBlend mode="normal" in2="BackgroundImageFix" result="effect1_dropShadow_892_556"/>
<feBlend mode="normal" in="SourceGraphic" in2="effect1_dropShadow_892_556" result="shape"/>
</filter>
<filter id="filter13_d_892_556" x="26.9637" y="35.258" width="6.17035" height="5.81006" filterUnits="userSpaceOnUse" color-interpolation-filters="sRGB">
<feFlood flood-opacity="0" result="BackgroundImageFix"/>
<feColorMatrix in="SourceAlpha" type="matrix" values="0 0 0 0 0 0 0 0 0 0 0 0 0 0 0 0 0 0 127 0" result="hardAlpha"/>
<feOffset dy="0.842562"/>
<feGaussianBlur stdDeviation="0.421281"/>
<feComposite in2="hardAlpha" operator="out"/>
<feColorMatrix type="matrix" values="0 0 0 0 0 0 0 0 0 0 0 0 0 0 0 0 0 0 0.25 0"/>
<feBlend mode="normal" in2="BackgroundImageFix" result="effect1_dropShadow_892_556"/>
<feBlend mode="normal" in="SourceGraphic" in2="effect1_dropShadow_892_556" result="shape"/>
</filter>
<filter id="filter14_d_892_556" x="42.5406" y="45.6352" width="4.482" height="5.26514" filterUnits="userSpaceOnUse" color-interpolation-filters="sRGB">
<feFlood flood-opacity="0" result="BackgroundImageFix"/>
<feColorMatrix in="SourceAlpha" type="matrix" values="0 0 0 0 0 0 0 0 0 0 0 0 0 0 0 0 0 0 127 0" result="hardAlpha"/>
<feOffset dy="0.842562"/>
<feGaussianBlur stdDeviation="0.421281"/>
<feComposite in2="hardAlpha" operator="out"/>
<feColorMatrix type="matrix" values="0 0 0 0 0 0 0 0 0 0 0 0 0 0 0 0 0 0 0.25 0"/>
<feBlend mode="normal" in2="BackgroundImageFix" result="effect1_dropShadow_892_556"/>
<feBlend mode="normal" in="SourceGraphic" in2="effect1_dropShadow_892_556" result="shape"/>
</filter>
<filter id="filter15_d_892_556" x="47.51" y="23.4691" width="6.17035" height="5.81006" filterUnits="userSpaceOnUse" color-interpolation-filters="sRGB">
<feFlood flood-opacity="0" result="BackgroundImageFix"/>
<feColorMatrix in="SourceAlpha" type="matrix" values="0 0 0 0 0 0 0 0 0 0 0 0 0 0 0 0 0 0 127 0" result="hardAlpha"/>
<feOffset dy="0.842562"/>
<feGaussianBlur stdDeviation="0.421281"/>
<feComposite in2="hardAlpha" operator="out"/>
<feColorMatrix type="matrix" values="0 0 0 0 0 0 0 0 0 0 0 0 0 0 0 0 0 0 0.25 0"/>
<feBlend mode="normal" in2="BackgroundImageFix" result="effect1_dropShadow_892_556"/>
<feBlend mode="normal" in="SourceGraphic" in2="effect1_dropShadow_892_556" result="shape"/>
</filter>
<linearGradient id="paint0_linear_892_556" x1="35.7223" y1="19.0943" x2="35.7223" y2="74.6707" gradientUnits="userSpaceOnUse">
<stop offset="0.754808" stop-color="#672264"/>
<stop offset="0.9999" stop-color="#372833"/>
</linearGradient>
<radialGradient id="paint1_radial_892_556" cx="0" cy="0" r="1" gradientTransform="matrix(5.12872 27.7118 -31.0807 3.71075 30.6383 40.5018)" gradientUnits="userSpaceOnUse">
<stop stop-color="#573131"/>
<stop offset="0.932692" stop-color="#573131" stop-opacity="0.75"/>
</radialGradient>
<linearGradient id="paint2_linear_892_556" x1="33.2038" y1="44.6931" x2="33.2038" y2="111.869" gradientUnits="userSpaceOnUse">
<stop stop-color="#FFD3F4"/>
<stop offset="1" stop-color="#997F92"/>
</linearGradient>
<linearGradient id="paint3_linear_892_556" x1="36.0829" y1="66.4183" x2="36.0829" y2="106.164" gradientUnits="userSpaceOnUse">
<stop stop-color="#372833"/>
<stop offset="0.5" stop-color="#915882"/>
<stop offset="0.980769" stop-color="#51374A"/>
</linearGradient>
<radialGradient id="paint4_radial_892_556" cx="0" cy="0" r="1" gradientTransform="matrix(8.47834 45.6396 -41.1135 7.63744 27.7677 22.6309)" gradientUnits="userSpaceOnUse">
<stop stop-color="#BFAEED"/>
<stop offset="0.517413" stop-color="#8D53AD"/>
<stop offset="1" stop-color="#702CD6"/>
</radialGradient>
<radialGradient id="paint5_radial_892_556" cx="0" cy="0" r="1" gradientUnits="userSpaceOnUse" gradientTransform="translate(20.8983 27.191) rotate(90) scale(5.64184 3.19985)">
<stop stop-color="#FFD3F4"/>
<stop offset="1" stop-color="#F6E5C8"/>
</radialGradient>
<radialGradient id="paint6_radial_892_556" cx="0" cy="0" r="1" gradientUnits="userSpaceOnUse" gradientTransform="translate(54.0056 42.0189) rotate(90) scale(6.33257 4.15475)">
<stop stop-color="#FFD3F4"/>
<stop offset="1" stop-color="#F6E5C8"/>
</radialGradient>
<radialGradient id="paint7_radial_892_556" cx="0" cy="0" r="1" gradientUnits="userSpaceOnUse" gradientTransform="translate(31.9194 49.9343) rotate(90) scale(3.57827 2.8803)">
<stop stop-color="#FFD3F4"/>
<stop offset="1" stop-color="#F6E5C8"/>
</radialGradient>
<radialGradient id="paint8_radial_892_556" cx="0" cy="0" r="1" gradientUnits="userSpaceOnUse" gradientTransform="translate(39.4458 27.1986) rotate(90) scale(3.57827 2.8803)">
<stop stop-color="#FFD3F4"/>
<stop offset="1" stop-color="#F6E5C8"/>
</radialGradient>
<radialGradient id="paint9_radial_892_556" cx="0" cy="0" r="1" gradientUnits="userSpaceOnUse" gradientTransform="translate(16.6949 46.6644) rotate(90) scale(5.81937 3.2261)">
<stop stop-color="#FFD3F4"/>
<stop offset="1" stop-color="#F6E5C8"/>
</radialGradient>
<radialGradient id="paint10_radial_892_556" cx="0" cy="0" r="1" gradientUnits="userSpaceOnUse" gradientTransform="translate(35.8711 61.7403) rotate(90) scale(1.59291 1.10079)">
<stop stop-color="#FFD3F4"/>
<stop offset="1" stop-color="#F6E5C8"/>
</radialGradient>
<radialGradient id="paint11_radial_892_556" cx="0" cy="0" r="1" gradientUnits="userSpaceOnUse" gradientTransform="translate(37.0499 15.4267) rotate(90) scale(1.59291 1.10079)">
<stop stop-color="#FFD3F4"/>
<stop offset="1" stop-color="#F6E5C8"/>
</radialGradient>
<radialGradient id="paint12_radial_892_556" cx="0" cy="0" r="1" gradientUnits="userSpaceOnUse" gradientTransform="translate(30.0488 37.3205) rotate(90) scale(2.02449 2.27586)">
<stop stop-color="#FFD3F4"/>
<stop offset="1" stop-color="#F6E5C8"/>
</radialGradient>
<radialGradient id="paint13_radial_892_556" cx="0" cy="0" r="1" gradientUnits="userSpaceOnUse" gradientTransform="translate(44.7816 47.4252) rotate(90) scale(1.27729 1.87781)">
<stop stop-color="#FFD3F4"/>
<stop offset="1" stop-color="#F6E5C8"/>
</radialGradient>
<radialGradient id="paint14_radial_892_556" cx="0" cy="0" r="1" gradientUnits="userSpaceOnUse" gradientTransform="translate(50.5952 25.5316) rotate(90) scale(2.02449 2.27586)">
<stop stop-color="#FFD3F4"/>
<stop offset="1" stop-color="#F6E5C8"/>
</radialGradient>
</defs>
</svg>
