<svg viewBox="0 0 125 24" fill="none" xmlns="http://www.w3.org/2000/svg"><path d="M17.1428 0C20.9298 2.10285e-05 23.9998 3.07003 23.9999 6.85708C23.9999 8.90534 23.1013 10.7434 21.6775 11.9999C23.1014 13.2563 23.9999 15.0945 23.9999 17.1428C23.9998 20.9298 20.9298 23.9998 17.1428 23.9999C15.0945 23.9999 13.2563 23.1014 11.9999 21.6775C10.7434 23.1013 8.90534 23.9999 6.85708 23.9999C3.07003 23.9998 2.10312e-05 20.9298 0 17.1428C0 15.0946 0.898179 13.2563 2.32192 11.9999C0.898211 10.7434 0 8.90523 0 6.85708C7.42186e-06 3.07002 3.07002 7.42282e-06 6.85708 0C8.90523 0 10.7434 0.898211 11.9999 2.32192C13.2563 0.898179 15.0946 0 17.1428 0ZM15.6189 4.57148C13.9307 4.57152 12.4997 5.66974 11.9999 7.19062C11.5 5.66973 10.069 4.57149 8.38081 4.57148C6.27692 4.57152 4.57148 6.27705 4.57148 8.38096C4.57154 10.0691 5.66978 11.5 7.19062 11.9999C5.66975 12.4998 4.5715 13.9307 4.57148 15.6189C4.57152 17.7228 6.27694 19.4282 8.38081 19.4282C10.0691 19.4282 11.5001 18.3297 11.9999 16.8086C12.4996 18.3297 13.9306 19.4282 15.6189 19.4282C17.7228 19.4282 19.4282 17.7228 19.4282 15.6189C19.4282 13.9306 18.3297 12.4996 16.8086 11.9999C18.3297 11.5001 19.4282 10.0692 19.4282 8.38096C19.4282 6.27705 17.7228 4.57152 15.6189 4.57148ZM11.9999 9.10474C13.5988 9.10474 14.8951 10.4009 14.8951 11.9999C14.8951 13.5988 13.5988 14.8951 11.9999 14.8951C10.4009 14.8951 9.10474 13.5988 9.10474 11.9999C9.10475 10.4009 10.4009 9.10475 11.9999 9.10474Z" fill="#5533EE"></path><path d="M33 11.9609V24H36.7889V19.4658C36.7889 18.6059 36.7889 18.0977 36.7498 17.316H36.8279C37.7654 18.7231 39.2497 19.4658 41.2027 19.4658C44.7963 19.4658 47.6867 16.2997 47.6867 11.9609C47.6867 7.66124 44.9134 4.5342 40.3824 4.5342C36.0467 4.5342 33 7.58306 33 11.9609ZM40.3043 16.0261C38.156 16.0261 36.7107 14.3844 36.7107 12C36.7107 9.61564 38.156 7.93485 40.3043 7.93485C42.4526 7.93485 43.8979 9.69381 43.8979 11.9609C43.8979 14.3062 42.4526 16.0261 40.3043 16.0261ZM48.9367 0V19.114H52.7255V11.101C52.7255 9.30293 53.7802 7.97394 55.4598 7.97394C57.1784 7.97394 58.1159 9.22476 58.1159 10.9837V19.114H61.9048V9.92834C61.9048 6.87948 60.2252 4.5342 56.905 4.5342C55.3426 4.5342 53.663 5.15961 52.7255 6.84039H52.6865C52.7255 6.1759 52.7255 5.58958 52.7255 4.84691V0H48.9367ZM70.5371 19.544C74.8728 19.544 77.9196 16.2997 77.9196 11.9609C77.9196 7.58306 74.8728 4.37785 70.5371 4.37785C66.2014 4.37785 63.1156 7.62215 63.1156 11.9609C63.1156 16.2997 66.1624 19.544 70.5371 19.544ZM70.5371 16.1042C68.3107 16.1042 66.9045 14.228 66.9045 11.9609C66.9045 9.69381 68.3107 7.81759 70.5371 7.81759C72.7245 7.81759 74.1307 9.69381 74.1307 11.9609C74.1307 14.228 72.7245 16.1042 70.5371 16.1042ZM86.0832 19.544C89.0518 19.544 91.4345 18.2932 92.7235 15.6352L89.5986 14.1498C88.9737 15.5961 87.8019 16.2997 86.2785 16.2997C84.2864 16.2997 82.9193 15.0098 82.5287 13.1336H92.9969C93.036 12.6254 93.075 12.2345 93.075 11.7655C93.075 7.19218 90.6142 4.37785 86.1613 4.37785C81.8256 4.37785 78.857 7.58306 78.857 12C78.857 16.4169 81.7865 19.544 86.0832 19.544ZM89.6377 10.3974H82.6459C83.1146 8.7557 84.3645 7.62215 86.1613 7.62215C88.0753 7.62215 89.2471 8.67753 89.6377 10.3974ZM117.058 19.544C120.027 19.544 122.37 18.2932 123.659 15.6352L120.574 14.1498C119.949 15.5961 118.777 16.2997 117.253 16.2997C115.261 16.2997 113.894 15.0098 113.504 13.1336H123.972C124.011 12.6254 124.05 12.2345 124.05 11.7655C124.05 7.19218 121.589 4.37785 117.136 4.37785C112.801 4.37785 109.793 7.58306 109.793 12C109.793 16.4169 112.762 19.544 117.058 19.544ZM120.613 10.3974H113.582C114.09 8.7557 115.34 7.62215 117.136 7.62215C119.05 7.62215 120.222 8.67753 120.613 10.3974ZM94.3187 12.0391C94.3187 15.9925 97.287 19.4658 101.623 19.4658C106.154 19.4658 109.005 16.3388 109.005 12.0391C109.005 7.70033 106.115 4.5342 102.521 4.5342C100.568 4.5342 99.0841 5.27687 98.1466 6.68404H98.0685C98.1076 5.90228 98.1076 5.39414 98.1076 4.5342V0H94.3187V12.0391ZM101.623 7.97394C103.771 7.97394 105.217 9.69381 105.217 12.0391C105.217 14.3062 103.771 16.0651 101.623 16.0651C99.4747 16.0651 98.0295 14.3844 98.0295 12C98.0295 9.61564 99.4747 7.97394 101.623 7.97394Z" fill="#002429"></path></svg>